<mxfile host="65bd71144e">
    <diagram id="GD1WaLO3jToNyfRFWuux" name="Page-1">
        <mxGraphModel dx="1081" dy="1644" grid="1" gridSize="10" guides="1" tooltips="1" connect="1" arrows="1" fold="1" page="1" pageScale="1" pageWidth="850" pageHeight="1100" math="0" shadow="0">
            <root>
                <mxCell id="0"/>
                <mxCell id="1" parent="0"/>
                <mxCell id="2" value="ConfigurationGrammar" style="swimlane;fontStyle=1;align=center;verticalAlign=top;childLayout=stackLayout;horizontal=1;startSize=26;horizontalStack=0;resizeParent=1;resizeParentMax=0;resizeLast=0;collapsible=1;marginBottom=0;" vertex="1" parent="1">
                    <mxGeometry x="1068" y="630" width="270" height="60" as="geometry">
                        <mxRectangle x="132.5" y="710" width="210" height="30" as="alternateBounds"/>
                    </mxGeometry>
                </mxCell>
                <mxCell id="3" value="" style="line;strokeWidth=1;fillColor=none;align=left;verticalAlign=middle;spacingTop=-1;spacingLeft=3;spacingRight=3;rotatable=0;labelPosition=right;points=[];portConstraint=eastwest;strokeColor=inherit;" vertex="1" parent="2">
                    <mxGeometry y="26" width="270" height="8" as="geometry"/>
                </mxCell>
                <mxCell id="4" value="+ grammar: unit -&gt; Parser&lt;ConfigAstData, unit&gt;" style="text;strokeColor=none;fillColor=none;align=left;verticalAlign=top;spacingLeft=4;spacingRight=4;overflow=hidden;rotatable=0;points=[[0,0.5],[1,0.5]];portConstraint=eastwest;" vertex="1" parent="2">
                    <mxGeometry y="34" width="270" height="26" as="geometry"/>
                </mxCell>
                <mxCell id="5" value="Statement" style="swimlane;fontStyle=1;align=center;verticalAlign=top;childLayout=stackLayout;horizontal=1;startSize=26;horizontalStack=0;resizeParent=1;resizeParentMax=0;resizeLast=0;collapsible=1;marginBottom=0;" vertex="1" parent="1">
                    <mxGeometry x="1068" y="870" width="107.5" height="112" as="geometry">
                        <mxRectangle x="132.5" y="810" width="197.5" height="30" as="alternateBounds"/>
                    </mxGeometry>
                </mxCell>
                <mxCell id="6" value="+ nesting: int" style="text;strokeColor=none;fillColor=none;align=left;verticalAlign=top;spacingLeft=4;spacingRight=4;overflow=hidden;rotatable=0;points=[[0,0.5],[1,0.5]];portConstraint=eastwest;" vertex="1" parent="5">
                    <mxGeometry y="26" width="107.5" height="26" as="geometry"/>
                </mxCell>
                <mxCell id="7" value="+ identifier: string" style="text;strokeColor=none;fillColor=none;align=left;verticalAlign=top;spacingLeft=4;spacingRight=4;overflow=hidden;rotatable=0;points=[[0,0.5],[1,0.5]];portConstraint=eastwest;" vertex="1" parent="5">
                    <mxGeometry y="52" width="107.5" height="26" as="geometry"/>
                </mxCell>
                <mxCell id="8" value="+ ratio: float" style="text;strokeColor=none;fillColor=none;align=left;verticalAlign=top;spacingLeft=4;spacingRight=4;overflow=hidden;rotatable=0;points=[[0,0.5],[1,0.5]];portConstraint=eastwest;" vertex="1" parent="5">
                    <mxGeometry y="78" width="107.5" height="26" as="geometry"/>
                </mxCell>
                <mxCell id="9" value="" style="line;strokeWidth=1;fillColor=none;align=left;verticalAlign=middle;spacingTop=-1;spacingLeft=3;spacingRight=3;rotatable=0;labelPosition=right;points=[];portConstraint=eastwest;strokeColor=inherit;" vertex="1" parent="5">
                    <mxGeometry y="104" width="107.5" height="8" as="geometry"/>
                </mxCell>
                <mxCell id="10" value="ConfigAstData" style="swimlane;fontStyle=1;align=center;verticalAlign=top;childLayout=stackLayout;horizontal=1;startSize=26;horizontalStack=0;resizeParent=1;resizeParentMax=0;resizeLast=0;collapsible=1;marginBottom=0;" vertex="1" parent="1">
                    <mxGeometry x="1068" y="730" width="165" height="86" as="geometry">
                        <mxRectangle x="132.5" y="810" width="197.5" height="30" as="alternateBounds"/>
                    </mxGeometry>
                </mxCell>
                <mxCell id="11" value="+ threshold: int" style="text;strokeColor=none;fillColor=none;align=left;verticalAlign=top;spacingLeft=4;spacingRight=4;overflow=hidden;rotatable=0;points=[[0,0.5],[1,0.5]];portConstraint=eastwest;" vertex="1" parent="10">
                    <mxGeometry y="26" width="165" height="26" as="geometry"/>
                </mxCell>
                <mxCell id="12" value="+ statements: Statement list" style="text;strokeColor=none;fillColor=none;align=left;verticalAlign=top;spacingLeft=4;spacingRight=4;overflow=hidden;rotatable=0;points=[[0,0.5],[1,0.5]];portConstraint=eastwest;" vertex="1" parent="10">
                    <mxGeometry y="52" width="165" height="26" as="geometry"/>
                </mxCell>
                <mxCell id="13" value="" style="line;strokeWidth=1;fillColor=none;align=left;verticalAlign=middle;spacingTop=-1;spacingLeft=3;spacingRight=3;rotatable=0;labelPosition=right;points=[];portConstraint=eastwest;strokeColor=inherit;" vertex="1" parent="10">
                    <mxGeometry y="78" width="165" height="8" as="geometry"/>
                </mxCell>
                <mxCell id="14" value="" style="endArrow=open;startArrow=circlePlus;endFill=0;startFill=0;endSize=8;html=1;" edge="1" parent="1" source="2" target="10">
                    <mxGeometry width="160" relative="1" as="geometry">
                        <mxPoint x="1356" y="660" as="sourcePoint"/>
                        <mxPoint x="1516" y="660" as="targetPoint"/>
                    </mxGeometry>
                </mxCell>
                <mxCell id="15" value="" style="endArrow=diamondThin;endFill=0;endSize=24;html=1;" edge="1" parent="1" source="5" target="10">
                    <mxGeometry width="160" relative="1" as="geometry">
                        <mxPoint x="1406" y="720" as="sourcePoint"/>
                        <mxPoint x="1566" y="720" as="targetPoint"/>
                    </mxGeometry>
                </mxCell>
                <mxCell id="16" value="ConfigurationProcessing" style="swimlane;fontStyle=1;align=center;verticalAlign=top;childLayout=stackLayout;horizontal=1;startSize=26;horizontalStack=0;resizeParent=1;resizeParentMax=0;resizeLast=0;collapsible=1;marginBottom=0;" vertex="1" parent="1">
                    <mxGeometry x="1068" y="530" width="385" height="60" as="geometry">
                        <mxRectangle x="132.5" y="710" width="210" height="30" as="alternateBounds"/>
                    </mxGeometry>
                </mxCell>
                <mxCell id="17" value="" style="line;strokeWidth=1;fillColor=none;align=left;verticalAlign=middle;spacingTop=-1;spacingLeft=3;spacingRight=3;rotatable=0;labelPosition=right;points=[];portConstraint=eastwest;strokeColor=inherit;" vertex="1" parent="16">
                    <mxGeometry y="26" width="385" height="8" as="geometry"/>
                </mxCell>
                <mxCell id="18" value="+ parseConfig: path -&gt; Task&lt;Result&lt;Configuration, TErr&gt;&gt;" style="text;strokeColor=none;fillColor=none;align=left;verticalAlign=top;spacingLeft=4;spacingRight=4;overflow=hidden;rotatable=0;points=[[0,0.5],[1,0.5]];portConstraint=eastwest;" vertex="1" parent="16">
                    <mxGeometry y="34" width="385" height="26" as="geometry"/>
                </mxCell>
                <mxCell id="19" value="ConfigurationItem" style="swimlane;fontStyle=1;align=center;verticalAlign=top;childLayout=stackLayout;horizontal=1;startSize=26;horizontalStack=0;resizeParent=1;resizeParentMax=0;resizeLast=0;collapsible=1;marginBottom=0;" vertex="1" parent="1">
                    <mxGeometry x="1253" y="740" width="200" height="112" as="geometry">
                        <mxRectangle x="132.5" y="810" width="197.5" height="30" as="alternateBounds"/>
                    </mxGeometry>
                </mxCell>
                <mxCell id="20" value="+ key: string" style="text;strokeColor=none;fillColor=none;align=left;verticalAlign=top;spacingLeft=4;spacingRight=4;overflow=hidden;rotatable=0;points=[[0,0.5],[1,0.5]];portConstraint=eastwest;" vertex="1" parent="19">
                    <mxGeometry y="26" width="200" height="26" as="geometry"/>
                </mxCell>
                <mxCell id="21" value="+ ratio: float" style="text;strokeColor=none;fillColor=none;align=left;verticalAlign=top;spacingLeft=4;spacingRight=4;overflow=hidden;rotatable=0;points=[[0,0.5],[1,0.5]];portConstraint=eastwest;" vertex="1" parent="19">
                    <mxGeometry y="52" width="200" height="26" as="geometry"/>
                </mxCell>
                <mxCell id="22" value="+ childItems: ConfigurationItem list" style="text;strokeColor=none;fillColor=none;align=left;verticalAlign=top;spacingLeft=4;spacingRight=4;overflow=hidden;rotatable=0;points=[[0,0.5],[1,0.5]];portConstraint=eastwest;" vertex="1" parent="19">
                    <mxGeometry y="78" width="200" height="26" as="geometry"/>
                </mxCell>
                <mxCell id="23" value="" style="line;strokeWidth=1;fillColor=none;align=left;verticalAlign=middle;spacingTop=-1;spacingLeft=3;spacingRight=3;rotatable=0;labelPosition=right;points=[];portConstraint=eastwest;strokeColor=inherit;" vertex="1" parent="19">
                    <mxGeometry y="104" width="200" height="8" as="geometry"/>
                </mxCell>
                <mxCell id="24" value="Use" style="endArrow=open;endSize=12;dashed=1;html=1;" edge="1" parent="1" source="16" target="2">
                    <mxGeometry width="160" relative="1" as="geometry">
                        <mxPoint x="1296" y="830" as="sourcePoint"/>
                        <mxPoint x="1456" y="830" as="targetPoint"/>
                    </mxGeometry>
                </mxCell>
                <mxCell id="25" value="Configuration" style="swimlane;fontStyle=1;align=center;verticalAlign=top;childLayout=stackLayout;horizontal=1;startSize=26;horizontalStack=0;resizeParent=1;resizeParentMax=0;resizeLast=0;collapsible=1;marginBottom=0;" vertex="1" parent="1">
                    <mxGeometry x="1213" y="896" width="222.5" height="86" as="geometry">
                        <mxRectangle x="132.5" y="810" width="197.5" height="30" as="alternateBounds"/>
                    </mxGeometry>
                </mxCell>
                <mxCell id="26" value="+ threshold: int" style="text;strokeColor=none;fillColor=none;align=left;verticalAlign=top;spacingLeft=4;spacingRight=4;overflow=hidden;rotatable=0;points=[[0,0.5],[1,0.5]];portConstraint=eastwest;" vertex="1" parent="25">
                    <mxGeometry y="26" width="222.5" height="26" as="geometry"/>
                </mxCell>
                <mxCell id="27" value="+ configurationTree: ConfigurationItem list" style="text;strokeColor=none;fillColor=none;align=left;verticalAlign=top;spacingLeft=4;spacingRight=4;overflow=hidden;rotatable=0;points=[[0,0.5],[1,0.5]];portConstraint=eastwest;" vertex="1" parent="25">
                    <mxGeometry y="52" width="222.5" height="26" as="geometry"/>
                </mxCell>
                <mxCell id="28" value="" style="line;strokeWidth=1;fillColor=none;align=left;verticalAlign=middle;spacingTop=-1;spacingLeft=3;spacingRight=3;rotatable=0;labelPosition=right;points=[];portConstraint=eastwest;strokeColor=inherit;" vertex="1" parent="25">
                    <mxGeometry y="78" width="222.5" height="8" as="geometry"/>
                </mxCell>
                <mxCell id="29" value="" style="endArrow=diamondThin;endFill=0;endSize=24;html=1;" edge="1" parent="1" source="19" target="25">
                    <mxGeometry width="160" relative="1" as="geometry">
                        <mxPoint x="1153.5" y="672.6121212121211" as="sourcePoint"/>
                        <mxPoint x="1206" y="669.3030303030303" as="targetPoint"/>
                    </mxGeometry>
                </mxCell>
                <mxCell id="30" value="" style="endArrow=open;startArrow=circlePlus;endFill=0;startFill=0;endSize=8;html=1;exitX=0.871;exitY=1.055;exitDx=0;exitDy=0;exitPerimeter=0;entryX=0.25;entryY=0;entryDx=0;entryDy=0;" edge="1" parent="1" source="18" target="25">
                    <mxGeometry width="160" relative="1" as="geometry">
                        <mxPoint x="1279.974358974359" y="750" as="sourcePoint"/>
                        <mxPoint x="1293.136752136752" y="706" as="targetPoint"/>
                        <Array as="points">
                            <mxPoint x="1353" y="610"/>
                            <mxPoint x="1353" y="710"/>
                            <mxPoint x="1243" y="710"/>
                            <mxPoint x="1243" y="870"/>
                        </Array>
                    </mxGeometry>
                </mxCell>
                <mxCell id="31" value="HierarchicalAnalysis" style="swimlane;fontStyle=1;align=center;verticalAlign=top;childLayout=stackLayout;horizontal=1;startSize=26;horizontalStack=0;resizeParent=1;resizeParentMax=0;resizeLast=0;collapsible=1;marginBottom=0;" vertex="1" parent="1">
                    <mxGeometry x="1068" y="400" width="380" height="86" as="geometry">
                        <mxRectangle x="132.5" y="710" width="210" height="30" as="alternateBounds"/>
                    </mxGeometry>
                </mxCell>
                <mxCell id="32" value="" style="line;strokeWidth=1;fillColor=none;align=left;verticalAlign=middle;spacingTop=-1;spacingLeft=3;spacingRight=3;rotatable=0;labelPosition=right;points=[];portConstraint=eastwest;strokeColor=inherit;" vertex="1" parent="31">
                    <mxGeometry y="26" width="380" height="8" as="geometry"/>
                </mxCell>
                <mxCell id="33" value="+ evaluateHierarchy: ConfigurationItem list -&gt; list&lt;string * float&gt;" style="text;strokeColor=none;fillColor=none;align=left;verticalAlign=top;spacingLeft=4;spacingRight=4;overflow=hidden;rotatable=0;points=[[0,0.5],[1,0.5]];portConstraint=eastwest;fontStyle=0" vertex="1" parent="31">
                    <mxGeometry y="34" width="380" height="26" as="geometry"/>
                </mxCell>
                <mxCell id="34" value="+ selectModifier: string list -&gt; string" style="text;strokeColor=none;fillColor=none;align=left;verticalAlign=top;spacingLeft=4;spacingRight=4;overflow=hidden;rotatable=0;points=[[0,0.5],[1,0.5]];portConstraint=eastwest;fontStyle=0" vertex="1" parent="31">
                    <mxGeometry y="60" width="380" height="26" as="geometry"/>
                </mxCell>
                <mxCell id="35" value="ITokenPriorityAnalyzer" style="swimlane;fontStyle=1;align=center;verticalAlign=top;childLayout=stackLayout;horizontal=1;startSize=26;horizontalStack=0;resizeParent=1;resizeParentMax=0;resizeLast=0;collapsible=1;marginBottom=0;" vertex="1" parent="1">
                    <mxGeometry x="1068" y="80" width="385" height="86" as="geometry">
                        <mxRectangle x="132.5" y="710" width="210" height="30" as="alternateBounds"/>
                    </mxGeometry>
                </mxCell>
                <mxCell id="36" value="" style="line;strokeWidth=1;fillColor=none;align=left;verticalAlign=middle;spacingTop=-1;spacingLeft=3;spacingRight=3;rotatable=0;labelPosition=right;points=[];portConstraint=eastwest;strokeColor=inherit;" vertex="1" parent="35">
                    <mxGeometry y="26" width="385" height="8" as="geometry"/>
                </mxCell>
                <mxCell id="37" value="+ ReadConfigurationFromFile : configurationPath: string -&gt; Task&lt;bool&gt;" style="text;strokeColor=none;fillColor=none;align=left;verticalAlign=top;spacingLeft=4;spacingRight=4;overflow=hidden;rotatable=0;points=[[0,0.5],[1,0.5]];portConstraint=eastwest;" vertex="1" parent="35">
                    <mxGeometry y="34" width="385" height="26" as="geometry"/>
                </mxCell>
                <mxCell id="38" value="+ SelectPreferredModifier : ICollection&lt;string&gt; -&gt; string" style="text;strokeColor=none;fillColor=none;align=left;verticalAlign=top;spacingLeft=4;spacingRight=4;overflow=hidden;rotatable=0;points=[[0,0.5],[1,0.5]];portConstraint=eastwest;" vertex="1" parent="35">
                    <mxGeometry y="60" width="385" height="26" as="geometry"/>
                </mxCell>
                <mxCell id="39" value="TokenPriorityAnalyzer" style="swimlane;fontStyle=1;align=center;verticalAlign=top;childLayout=stackLayout;horizontal=1;startSize=26;horizontalStack=0;resizeParent=1;resizeParentMax=0;resizeLast=0;collapsible=1;marginBottom=0;" vertex="1" parent="1">
                    <mxGeometry x="1068" y="200" width="385" height="138" as="geometry">
                        <mxRectangle x="132.5" y="710" width="210" height="30" as="alternateBounds"/>
                    </mxGeometry>
                </mxCell>
                <mxCell id="40" value="- threshold: int" style="text;strokeColor=none;fillColor=none;align=left;verticalAlign=top;spacingLeft=4;spacingRight=4;overflow=hidden;rotatable=0;points=[[0,0.5],[1,0.5]];portConstraint=eastwest;" vertex="1" parent="39">
                    <mxGeometry y="26" width="385" height="26" as="geometry"/>
                </mxCell>
                <mxCell id="41" value="- preferredModifiers: string list" style="text;strokeColor=none;fillColor=none;align=left;verticalAlign=top;spacingLeft=4;spacingRight=4;overflow=hidden;rotatable=0;points=[[0,0.5],[1,0.5]];portConstraint=eastwest;" vertex="1" parent="39">
                    <mxGeometry y="52" width="385" height="26" as="geometry"/>
                </mxCell>
                <mxCell id="42" value="" style="line;strokeWidth=1;fillColor=none;align=left;verticalAlign=middle;spacingTop=-1;spacingLeft=3;spacingRight=3;rotatable=0;labelPosition=right;points=[];portConstraint=eastwest;strokeColor=inherit;" vertex="1" parent="39">
                    <mxGeometry y="78" width="385" height="8" as="geometry"/>
                </mxCell>
                <mxCell id="43" value="+ SelectPreferredModifier : ICollection&lt;string&gt; -&gt; string" style="text;strokeColor=none;fillColor=none;align=left;verticalAlign=top;spacingLeft=4;spacingRight=4;overflow=hidden;rotatable=0;points=[[0,0.5],[1,0.5]];portConstraint=eastwest;" vertex="1" parent="39">
                    <mxGeometry y="86" width="385" height="26" as="geometry"/>
                </mxCell>
                <mxCell id="44" value="+ ReadConfigurationFromFile : configurationPath: string -&gt; Task&lt;bool&gt;" style="text;strokeColor=none;fillColor=none;align=left;verticalAlign=top;spacingLeft=4;spacingRight=4;overflow=hidden;rotatable=0;points=[[0,0.5],[1,0.5]];portConstraint=eastwest;" vertex="1" parent="39">
                    <mxGeometry y="112" width="385" height="26" as="geometry"/>
                </mxCell>
                <mxCell id="45" value="" style="endArrow=block;dashed=1;endFill=0;endSize=12;html=1;" edge="1" parent="1" source="39" target="35">
                    <mxGeometry width="160" relative="1" as="geometry">
                        <mxPoint x="539.25" y="-30" as="sourcePoint"/>
                        <mxPoint x="546.75" y="-60" as="targetPoint"/>
                    </mxGeometry>
                </mxCell>
                <mxCell id="46" value="Use" style="endArrow=open;endSize=12;dashed=1;html=1;" edge="1" parent="1" source="39" target="31">
                    <mxGeometry width="160" relative="1" as="geometry">
                        <mxPoint x="1523" y="430" as="sourcePoint"/>
                        <mxPoint x="1683" y="430" as="targetPoint"/>
                    </mxGeometry>
                </mxCell>
                <mxCell id="47" value="Use" style="endArrow=open;endSize=12;dashed=1;html=1;" edge="1" parent="1" source="39" target="16">
                    <mxGeometry width="160" relative="1" as="geometry">
                        <mxPoint x="1269.5086206896553" y="347.9999999999998" as="sourcePoint"/>
                        <mxPoint x="1268.617816091954" y="410" as="targetPoint"/>
                        <Array as="points">
                            <mxPoint x="1483" y="270"/>
                            <mxPoint x="1483" y="560"/>
                        </Array>
                    </mxGeometry>
                </mxCell>
            </root>
        </mxGraphModel>
    </diagram>
</mxfile>